<?xml version="1.0" encoding="UTF-8" standalone="no"?>
<svg width="139px" height="85px" viewBox="0 0 139 85" version="1.1" xmlns="http://www.w3.org/2000/svg" xmlns:xlink="http://www.w3.org/1999/xlink">
    <!-- Generator: Sketch 43.2 (39069) - http://www.bohemiancoding.com/sketch -->
    <title>mass-save-logo</title>
    <desc>Created with Sketch.</desc>
    <defs>
        <polygon id="path-1" points="0 85 139 85 139 0.3 0 0.3"></polygon>
    </defs>
    <g id="Symbols" stroke="none" stroke-width="1" fill="none" fill-rule="evenodd">
        <g id="organisms/header/default-d" transform="translate(-131.000000, -17.000000)">
            <g id="mass-save-logo" transform="translate(131.000000, 16.000000)">
                <polygon id="Fill-1" fill="#5FA844" points="73.4004 1.0001 68.2004 15.7001 63.0994 1.0001 61.0004 16.5001 52.9004 3.2011 54.1994 18.7001 43.4994 7.4001 47.8994 22.4001 35.1004 13.6001 42.4994 27.3001 28.2004 21.2991 38.2994 33.2001 23.1004 30.3991 35.2994 39.9001 19.8994 40.2991 33.7994 47.0001 19.5004 50.5001 38.8994 50.5001 38.8994 43.6001 38.2994 43.4001 44.7004 36.9001 44.8004 36.7991 44.9004 36.9001 48.9994 41.0001 48.9994 40.4001 48.8994 40.4001 48.8994 40.2001 49.6994 40.2001 49.6994 40.4001 49.5994 40.4001 49.5994 41.7001 51.3004 43.4001 50.7004 43.6001 50.7004 50.5001 52.9004 50.5001 52.9004 43.6001 52.2994 43.4001 58.6994 36.9001 58.7994 36.7991 58.8994 36.9001 62.9004 41.0001 62.9004 40.4001 62.9004 40.2001 63.7004 40.2001 63.7004 40.4001 63.6004 40.4001 63.6004 41.7001 65.2994 43.4001 64.7004 43.6001 64.7004 50.5001 66.8994 50.5001 66.8994 32.7001 72.0004 32.7001 72.0004 26.7991 71.9004 26.7991 71.9004 25.8991 73.0004 25.8991 73.0004 25.4001 77.4004 25.4001 77.4004 25.8991 81.0004 25.8991 81.0004 26.7991 80.8004 26.7991 80.8004 50.5001 83.0994 50.5001 83.0994 34.5001 84.6004 34.5001 84.6004 34.1001 86.4004 34.1001 86.4004 33.3001 92.5994 33.3001 92.5994 34.1001 94.4004 34.1001 94.4004 34.5001 95.9004 34.5001 95.9004 50.5001 117.0004 50.5001 102.6994 47.0001 116.5994 40.2991 101.0994 39.9001 113.4004 30.3991 98.1994 33.2001 108.1994 21.2991 93.9004 27.3001 101.2994 13.6001 88.5994 22.4001 92.9994 7.4001 82.2994 18.7001 83.5004 3.2011 75.4004 16.5001"></polygon>
                <polygon id="Fill-2" fill="#5FA844" points="73.4004 1.0001 68.2004 15.7001 63.0994 1.0001 61.0004 16.5001 52.9004 3.2011 54.1994 18.7001 43.4994 7.4001 47.8994 22.4001 35.1004 13.6001 42.4994 27.3001 28.2004 21.2991 38.2994 33.2001 23.1004 30.3991 35.2994 39.9001 19.8994 40.2991 33.7994 47.0001 19.5004 50.5001 38.8994 50.5001 38.8994 43.5001 38.2994 43.4001 44.7004 36.9001 44.8004 36.7991 44.9004 36.9001 48.9994 41.0001 48.9994 40.4001 48.8994 40.4001 48.8994 40.2001 49.6994 40.2001 49.6994 40.4001 49.5994 40.4001 49.5994 41.7001 51.3004 43.4001 50.7004 43.5001 50.7004 50.5001 52.9004 50.5001 52.9004 43.5001 52.2994 43.4001 58.6994 36.9001 58.7994 36.7991 58.8994 36.9001 62.9004 41.0001 62.9004 40.4001 62.9004 40.2001 63.7004 40.2001 63.7004 40.4001 63.6004 40.4001 63.6004 41.7001 65.2994 43.4001 64.7004 43.5001 64.7004 50.5001 66.8994 50.5001 66.8994 32.7001 72.0004 32.7001 72.0004 26.7991 71.9004 26.7991 71.9004 25.8991 73.0004 25.8991 73.0004 25.4001 77.4004 25.4001 77.4004 25.8991 81.0004 25.8991 81.0004 26.7991 80.8004 26.7991 80.8004 50.5001 83.0994 50.5001 83.0994 34.5001 84.6004 34.5001 84.6004 34.1001 86.4004 34.1001 86.4004 33.3001 92.5994 33.3001 92.5994 34.1001 94.4004 34.1001 94.4004 34.5001 95.9004 34.5001 95.9004 50.5001 117.0004 50.5001 102.6994 47.0001 116.5994 40.2991 101.0994 39.9001 113.4004 30.3991 98.1994 33.2001 108.1994 21.2991 93.9004 27.3001 101.2994 13.6001 88.5994 22.4001 92.9994 7.4001 82.2994 18.7001 83.5004 3.2011 75.4004 16.5001"></polygon>
                <g id="Group-53" transform="translate(0.000000, 0.700000)">
                    <path d="M0,54.3996 L4.4,54.3996 L4.4,56.7006 C5.4,55.3996 6.7,54.0996 9,54.0996 C11,54.0996 12.6,55.0006 13.4,56.5996 C14.8,55.0006 16.4,54.0996 18.5,54.0996 C21.8,54.0996 23.8,56.0996 23.8,60.0006 L23.8,70.2996 L19.4,70.2996 L19.4,61.3996 C19.4,59.2996 18.5,58.2006 16.8,58.2006 C15.1,58.2006 14.1,59.2996 14.1,61.3996 L14.1,70.2996 L9.7,70.2996 L9.7,61.3996 C9.7,59.2996 8.8,58.2006 7.1,58.2006 C5.4,58.2006 4.4,59.2996 4.4,61.3996 L4.4,70.2996 L0,70.2996 L0,54.3996 Z" id="Fill-3" fill="#5FA844"></path>
                    <path d="M25.3999,65.5002 L25.3999,65.5002 C25.3999,62.0002 27.9999,60.3992 31.6999,60.3992 C33.2999,60.3992 34.3999,60.7002 35.4999,61.0002 L35.4999,60.7002 C35.4999,58.8002 34.3999,57.8002 32.0999,57.8002 C30.3999,57.8002 29.1999,58.1002 27.7999,58.7002 L26.7999,55.3002 C28.4999,54.5002 30.1999,54.0002 32.8999,54.0002 C35.2999,54.0002 37.0999,54.6002 38.1999,55.8002 C39.3999,57.0002 39.8999,58.7002 39.8999,60.8002 L39.8999,69.8992 L35.5999,69.8992 L35.5999,68.3002 C34.4999,69.5002 32.9999,70.3002 30.8999,70.3002 C27.8999,70.3002 25.3999,68.6002 25.3999,65.5002 M35.5999,64.5002 L35.5999,63.7002 C34.7999,63.3002 33.7999,63.1002 32.7999,63.1002 C30.8999,63.1002 29.6999,63.8992 29.6999,65.3002 C29.6999,66.5002 30.6999,67.2002 32.0999,67.2002 C34.1999,67.2002 35.5999,66.1002 35.5999,64.5002" id="Fill-5" fill="#5FA844"></path>
                    <path d="M42.3999,67.8996 L44.2999,65.0006 C45.9999,66.2006 47.7999,66.8996 49.1999,66.8996 C50.4999,66.8996 51.0999,66.3996 51.0999,65.7006 L51.0999,65.5996 C51.0999,64.5996 49.5999,64.2996 47.8999,63.7996 C45.6999,63.2006 43.1999,62.0996 43.1999,59.0996 L43.1999,59.0006 C43.1999,55.7996 45.7999,54.0006 48.8999,54.0006 C50.8999,54.0006 52.9999,54.7006 54.6999,55.7996 L52.9999,59.0006 C51.4999,58.0996 49.8999,57.5006 48.7999,57.5006 C47.6999,57.5006 47.1999,58.0006 47.1999,58.5996 L47.1999,58.7006 C47.1999,59.5996 48.6999,60.0006 50.3999,60.5996 C52.5999,61.2996 55.0999,62.3996 55.0999,65.2996 L55.0999,65.3996 C55.0999,68.8996 52.4999,70.5006 49.0999,70.5006 C46.8999,70.2996 44.4999,69.5996 42.3999,67.8996" id="Fill-7" fill="#5FA844"></path>
                    <path d="M55.8999,67.8996 L57.7999,65.0006 C59.4999,66.2006 61.2999,66.8996 62.6999,66.8996 C63.9999,66.8996 64.5999,66.3996 64.5999,65.7006 L64.5999,65.5996 C64.5999,64.5996 63.0999,64.2996 61.3999,63.7996 C59.1999,63.2006 56.6999,62.0996 56.6999,59.0996 L56.6999,59.0006 C56.6999,55.7996 59.2999,54.0006 62.3999,54.0006 C64.3999,54.0006 66.5999,54.7006 68.1999,55.7996 L66.4999,58.8996 C64.9999,58.0006 63.3999,57.3996 62.2999,57.3996 C61.1999,57.3996 60.6999,57.8996 60.6999,58.5006 L60.6999,58.5996 C60.6999,59.5006 62.1999,59.8996 63.8999,60.5006 C66.0999,61.2006 68.5999,62.2996 68.5999,65.2006 L68.5999,65.2996 C68.5999,68.7996 65.9999,70.3996 62.5999,70.3996 C60.4999,70.2996 57.9999,69.5996 55.8999,67.8996" id="Fill-9" fill="#5FA844"></path>
                    <path d="M77.0996,67.8996 L78.9996,65.0006 C80.7006,66.2006 82.4996,66.8996 83.9006,66.8996 C85.2006,66.8996 85.7996,66.3996 85.7996,65.7006 L85.7996,65.5996 C85.7996,64.5996 84.2996,64.2996 82.5996,63.7996 C80.4006,63.2006 77.9006,62.0996 77.9006,59.0996 L77.9006,59.0006 C77.9006,55.7996 80.4996,54.0006 83.5996,54.0006 C85.5996,54.0006 87.7996,54.7006 89.4006,55.7996 L87.7006,58.8996 C86.2006,58.0006 84.5996,57.3996 83.4996,57.3996 C82.4006,57.3996 81.9006,57.8996 81.9006,58.5006 L81.9006,58.5996 C81.9006,59.5006 83.4006,59.8996 85.0996,60.5006 C87.2996,61.2006 89.7996,62.2996 89.7996,65.2006 L89.7996,65.2996 C89.7996,68.7996 87.2006,70.3996 83.7996,70.3996 C81.7006,70.2996 79.2006,69.5996 77.0996,67.8996" id="Fill-11" fill="#5FA844"></path>
                    <path d="M91.5,65.5002 L91.5,65.5002 C91.5,62.0002 94.1,60.3992 97.8,60.3992 C99.4,60.3992 100.5,60.7002 101.6,61.0002 L101.6,60.7002 C101.6,58.8002 100.5,57.8002 98.2,57.8002 C96.5,57.8002 95.3,58.1002 93.9,58.7002 L92.9,55.3002 C94.6,54.5002 96.3,54.0002 99,54.0002 C101.4,54.0002 103.2,54.6002 104.3,55.8002 C105.5,57.0002 106,58.7002 106,60.8002 L106,69.8992 L101.7,69.8992 L101.7,68.3002 C100.6,69.5002 99.1,70.3002 97,70.3002 C94,70.3002 91.5,68.6002 91.5,65.5002 M101.7,64.5002 L101.7,63.7002 C100.9,63.3002 99.9,63.1002 98.9,63.1002 C97,63.1002 95.8,63.8992 95.8,65.3002 C95.8,66.5002 96.8,67.2002 98.2,67.2002 C100.3,67.2002 101.7,66.1002 101.7,64.5002" id="Fill-13" fill="#5FA844"></path>
                    <polygon id="Fill-15" fill="#5FA844" points="105.9004 54.0998 110.5994 54.0998 114.0004 64.8998 117.5004 54.0998 122.0004 54.0998 116.0004 70.2998 112.0004 70.2998"></polygon>
                    <path d="M121.2002,62.2004 L121.2002,62.2004 C121.2002,57.7004 124.4002,54.0004 128.9002,54.0004 C134.0992,54.0004 136.5002,58.0004 136.5002,62.5004 C136.5002,62.8004 136.5002,63.3004 136.4002,63.7004 L125.5992,63.7004 C126.0002,65.7004 127.4002,66.8004 129.4002,66.8004 C130.9002,66.8004 132.0002,66.3004 133.2002,65.2004 L135.7002,67.3994 C134.2002,69.2004 132.2002,70.3004 129.3002,70.3004 C124.7002,70.3004 121.2002,67.0004 121.2002,62.2004 L121.2002,62.2004 Z M132.2002,60.8994 C131.9002,58.8994 130.8002,57.5994 128.9002,57.5994 C127.0992,57.5994 125.9002,58.8994 125.5002,60.8994 L132.2002,60.8994 Z" id="Fill-17" fill="#5FA844"></path>
                    <path d="M135.5996,54.8996 C135.5996,53.8996 136.4006,53.2006 137.2996,53.2006 C138.2006,53.2006 138.9996,53.8996 138.9996,54.8996 C138.9996,55.8996 138.2006,56.5996 137.2996,56.5996 C136.4006,56.5996 135.5996,55.8996 135.5996,54.8996 L135.5996,54.8996 Z M137.2996,56.3996 C138.0996,56.3996 138.7006,55.7996 138.7006,55.0006 C138.7006,54.2006 138.0996,53.5996 137.2996,53.5996 C136.4996,53.5996 135.9006,54.2006 135.9006,55.0006 C135.9006,55.7996 136.4996,56.3996 137.2996,56.3996 L137.2996,56.3996 Z M136.9996,55.8996 L136.7006,55.8996 L136.7006,53.8996 L137.4006,53.8996 C137.9006,53.8996 138.0996,54.0996 138.0996,54.5006 C138.0996,54.8996 137.9006,55.0006 137.5996,55.0006 L138.0996,55.8996 L137.7996,55.8996 L137.2996,55.0006 L136.9996,55.0006 L136.9996,55.8996 Z M137.2996,54.7996 C137.4996,54.7996 137.7996,54.7996 137.7996,54.5006 C137.7996,54.2996 137.5996,54.2006 137.4006,54.2006 L136.9996,54.2006 L136.9996,54.7996 L137.2996,54.7996 Z" id="Fill-19" fill="#5FA844"></path>
                    <path d="M0.6001,81.8 C1.0001,82.2 1.6001,82.6 2.5001,82.6 C3.5001,82.6 3.8001,82.1 3.8001,81.7 C3.8001,81.1 3.1001,80.9 2.4001,80.7 C1.4001,80.5 0.3001,80.2 0.3001,79 C0.3001,78 1.2001,77.3 2.4001,77.3 C3.3001,77.3 4.0001,77.6 4.6001,78.1 L4.0001,78.8 C3.5001,78.3 2.9001,78.1 2.3001,78.1 C1.6001,78.1 1.2001,78.4 1.2001,78.9 C1.2001,79.4 1.8001,79.6 2.6001,79.8 C3.6001,80.1 4.7001,80.4 4.7001,81.6 C4.7001,82.5 4.1001,83.4 2.5001,83.4 C1.4001,83.4 0.7001,83 0.2001,82.5 L0.6001,81.8 Z" id="Fill-21" fill="#5FA844"></path>
                    <path d="M8.2998,81.5998 C8.0998,81.2998 7.5998,81.0998 7.1998,81.0998 C6.5998,81.0998 6.1998,81.3998 6.1998,81.9998 C6.1998,82.5998 6.5998,82.8998 7.1998,82.8998 C7.5998,82.8998 8.0998,82.7008 8.2998,82.3998 L8.2998,81.5998 Z M8.2998,82.7998 C7.9998,83.2008 7.4998,83.3998 6.8998,83.3998 C6.1998,83.3998 5.3998,82.8998 5.3998,81.9998 C5.3998,80.9998 6.1998,80.5998 6.8998,80.5998 C7.4998,80.5998 7.9998,80.7998 8.2998,81.2008 L8.2998,80.4998 C8.2998,79.9998 7.8998,79.5998 7.2998,79.5998 C6.7998,79.5998 6.3998,79.7998 5.9998,80.2008 L5.6998,79.5998 C6.1998,79.0998 6.7998,78.8998 7.4998,78.8998 C8.3998,78.8998 9.1998,79.2998 9.1998,80.3998 L9.1998,83.2998 L8.2998,83.2998 L8.2998,82.7998 Z" id="Fill-23" fill="#5FA844"></path>
                    <polygon id="Fill-25" fill="#5FA844" points="9.7998 79.0002 10.6998 79.0002 11.9998 82.3992 13.2998 79.0002 14.1998 79.0002 12.3998 83.3002 11.4998 83.3002"></polygon>
                    <mask id="mask-2" fill="white">
                        <use xlink:href="#path-1"></use>
                    </mask>
                    <g id="Clip-28"></g>
                    <path d="M14.8,83.3 L15.6,83.3 L15.6,79 L14.8,79 L14.8,83.3 Z M14.7,77.8 C14.7,77.5 14.9,77.3 15.2,77.3 C15.5,77.3 15.7,77.5 15.7,77.8 C15.7,78.1 15.5,78.3 15.2,78.3 C15,78.3 14.7,78.1 14.7,77.8 L14.7,77.8 Z" id="Fill-27" fill="#5FA844" mask="url(#mask-2)"></path>
                    <path d="M19.7998,80.5998 C19.7998,79.8998 19.3998,79.7008 18.8998,79.7008 C18.3998,79.7008 17.8998,79.9998 17.6998,80.2998 L17.6998,83.2998 L16.8998,83.2998 L16.8998,78.9998 L17.6998,78.9998 L17.6998,79.5998 C17.9998,79.2998 18.5998,78.8998 19.1998,78.8998 C20.0998,78.8998 20.5998,79.3998 20.5998,80.2998 L20.5998,83.2998 L19.7998,83.2998 L19.7998,80.5998 Z" id="Fill-29" fill="#5FA844" mask="url(#mask-2)"></path>
                    <path d="M25,80.2004 C24.8,79.8994 24.3,79.5994 23.8,79.5994 C23,79.5994 22.5,80.2004 22.5,81.0994 C22.5,82.0004 23,82.5994 23.8,82.5994 C24.3,82.5994 24.8,82.3004 25,82.0004 L25,80.2004 Z M22.2,83.8004 C22.6,84.2004 23,84.3994 23.6,84.3994 C24.3,84.3994 24.9,84.0994 24.9,83.2004 L24.9,82.5994 C24.6,83.0004 24.1,83.3004 23.5,83.3004 C22.4,83.3004 21.6,82.5004 21.6,81.0994 C21.6,79.7004 22.4,78.8994 23.5,78.8994 C24.1,78.8994 24.6,79.2004 24.9,79.5994 L24.9,79.0004 L25.7,79.0004 L25.7,83.0994 C25.7,84.5994 24.6,85.0004 23.6,85.0004 C22.9,85.0004 22.4,84.8004 21.8,84.3994 L22.2,83.8004 Z" id="Fill-30" fill="#5FA844" mask="url(#mask-2)"></path>
                    <path d="M27,82.2004 C27.3,82.5004 27.9,82.8004 28.4,82.8004 C29,82.8004 29.3,82.5994 29.3,82.2004 C29.3,81.8004 28.8,81.5994 28.3,81.5004 C27.6,81.3004 26.7,81.0994 26.7,80.2004 C26.7,79.5004 27.3,78.8994 28.3,78.8994 C29,78.8994 29.6,79.2004 29.9,79.5004 L29.5,80.0994 C29.3,79.8004 28.8,79.5994 28.2,79.5994 C27.6,79.5994 27.3,79.8004 27.3,80.2004 C27.3,80.5994 27.8,80.7004 28.3,80.8004 C29,81.0004 29.9,81.2004 29.9,82.2004 C29.9,82.8994 29.3,83.5004 28.2,83.5004 C27.5,83.5004 26.8,83.3004 26.4,82.8004 L27,82.2004 Z" id="Fill-31" fill="#5FA844" mask="url(#mask-2)"></path>
                    <path d="M33.7002,82.3 L33.7002,79.7 L33.0002,79.7 L33.0002,79 L33.7002,79 L33.7002,77.8 L34.5002,77.8 L34.5002,79 L35.4002,79 L35.4002,79.7 L34.5002,79.7 L34.5002,82.2 C34.5002,82.5 34.6002,82.7 34.9002,82.7 C35.1002,82.7 35.3002,82.6 35.3002,82.5 L35.5002,83.1 C35.3002,83.3 35.1002,83.4 34.7002,83.4 C34.0002,83.4 33.7002,83 33.7002,82.3" id="Fill-32" fill="#5FA844" mask="url(#mask-2)"></path>
                    <path d="M39.1001,80.5002 C39.1001,79.8002 38.7001,79.6002 38.2001,79.6002 C37.7001,79.6002 37.2001,79.8992 37.0001,80.2002 L37.0001,83.3002 L36.2001,83.3002 L36.2001,77.3992 L37.0001,77.3992 L37.0001,79.6002 C37.3001,79.3002 37.9001,78.8992 38.5001,78.8992 C39.4001,78.8992 39.9001,79.3992 39.9001,80.3002 L39.9001,83.3002 L39.1001,83.3002 L39.1001,80.5002 Z" id="Fill-33" fill="#5FA844" mask="url(#mask-2)"></path>
                    <path d="M41.2002,79.0002 L42.0002,79.0002 L42.0002,79.7002 C42.3002,79.3002 42.8002,78.8992 43.4002,78.8992 L43.4002,79.7002 L43.1002,79.7002 C42.7002,79.7002 42.2002,80.0002 42.0002,80.3002 L42.0002,83.3002 L41.2002,83.3002 L41.2002,79.0002 Z" id="Fill-34" fill="#5FA844" mask="url(#mask-2)"></path>
                    <path d="M47.3999,81.0998 C47.3999,80.2998 46.8999,79.5998 46.0999,79.5998 C45.1999,79.5998 44.7999,80.2998 44.7999,81.0998 C44.7999,81.8998 45.2999,82.5998 46.0999,82.5998 C46.9999,82.7008 47.3999,81.9998 47.3999,81.0998 M43.8999,81.0998 C43.8999,79.8998 44.6999,78.7998 46.0999,78.7998 C47.3999,78.7998 48.2999,79.7998 48.2999,81.0998 C48.2999,82.2998 47.4999,83.3998 46.0999,83.3998 C44.7999,83.3998 43.8999,82.3998 43.8999,81.0998" id="Fill-35" fill="#5FA844" mask="url(#mask-2)"></path>
                    <path d="M52.2002,82.7004 C51.9002,83.0994 51.3002,83.3994 50.7002,83.3994 C49.8002,83.3994 49.3002,82.8994 49.3002,82.0004 L49.3002,79.0004 L50.1002,79.0004 L50.1002,81.8004 C50.1002,82.5004 50.5002,82.7004 51.0002,82.7004 C51.5002,82.7004 52.0002,82.3994 52.2002,82.0994 L52.2002,79.0004 L53.0002,79.0004 L53.0002,83.3004 L52.2002,83.3004 L52.2002,82.7004 Z" id="Fill-36" fill="#5FA844" mask="url(#mask-2)"></path>
                    <path d="M57.2998,80.2004 C57.0998,79.8994 56.5998,79.5994 56.0998,79.5994 C55.2998,79.5994 54.7998,80.2004 54.7998,81.0994 C54.7998,82.0004 55.2998,82.5994 56.0998,82.5994 C56.5998,82.5994 57.0998,82.3004 57.2998,82.0004 L57.2998,80.2004 Z M54.5998,83.8004 C54.9998,84.2004 55.3998,84.3994 55.9998,84.3994 C56.6998,84.3994 57.2998,84.0994 57.2998,83.2004 L57.2998,82.5994 C56.9998,83.0004 56.4998,83.3004 55.8998,83.3004 C54.7998,83.3004 53.9998,82.5004 53.9998,81.0994 C53.9998,79.7004 54.7998,78.8994 55.8998,78.8994 C56.4998,78.8994 56.9998,79.2004 57.2998,79.5994 L57.2998,79.0004 L58.0998,79.0004 L58.0998,83.0994 C58.0998,84.5994 56.9998,85.0004 55.9998,85.0004 C55.2998,85.0004 54.7998,84.8004 54.1998,84.3994 L54.5998,83.8004 Z" id="Fill-37" fill="#5FA844" mask="url(#mask-2)"></path>
                    <path d="M62.2998,80.5002 C62.2998,79.8002 61.8998,79.6002 61.3998,79.6002 C60.8998,79.6002 60.3998,79.8992 60.1998,80.2002 L60.1998,83.3002 L59.3998,83.3002 L59.3998,77.3992 L60.1998,77.3992 L60.1998,79.6002 C60.4998,79.3002 61.0998,78.8992 61.6998,78.8992 C62.5998,78.8992 63.0998,79.3992 63.0998,80.3002 L63.0998,83.3002 L62.2998,83.3002 L62.2998,80.5002 Z" id="Fill-38" fill="#5FA844" mask="url(#mask-2)"></path>
                    <path d="M67.2998,80.8 L69.8998,80.8 C69.8998,80.2 69.4998,79.5 68.5998,79.5 C67.6998,79.6 67.2998,80.2 67.2998,80.8 M68.5998,78.9 C69.8998,78.9 70.6998,79.9 70.6998,81.2 L70.6998,81.4 L67.2998,81.4 C67.3998,82.1 67.8998,82.7 68.7998,82.7 C69.2998,82.7 69.7998,82.5 70.0998,82.2 L70.4998,82.7 C70.0998,83.1 69.4998,83.3 68.7998,83.3 C67.4998,83.3 66.5998,82.4 66.5998,81 C66.3998,79.9 67.2998,78.9 68.5998,78.9" id="Fill-39" fill="#5FA844" mask="url(#mask-2)"></path>
                    <path d="M74.5996,80.5998 C74.5996,79.8998 74.2006,79.7008 73.7006,79.7008 C73.2006,79.7008 72.7006,79.9998 72.4996,80.2998 L72.4996,83.2998 L71.7006,83.2998 L71.7006,78.9998 L72.4996,78.9998 L72.4996,79.5998 C72.7996,79.2998 73.4006,78.8998 73.9996,78.8998 C74.9006,78.8998 75.4006,79.3998 75.4006,80.2998 L75.4006,83.2998 L74.5996,83.2998 L74.5996,80.5998 Z" id="Fill-40" fill="#5FA844" mask="url(#mask-2)"></path>
                    <path d="M77.2002,80.8 L79.8002,80.8 C79.8002,80.2 79.4002,79.5 78.5002,79.5 C77.7002,79.6 77.3002,80.2 77.2002,80.8 M78.5002,78.9 C79.8002,78.9 80.5992,79.9 80.5992,81.2 L80.5992,81.4 L77.2002,81.4 C77.3002,82.1 77.8002,82.7 78.7002,82.7 C79.2002,82.7 79.7002,82.5 80.0002,82.2 L80.4002,82.7 C80.0002,83.1 79.4002,83.3 78.7002,83.3 C77.4002,83.3 76.5002,82.4 76.5002,81 C76.4002,79.9 77.3002,78.9 78.5002,78.9" id="Fill-41" fill="#5FA844" mask="url(#mask-2)"></path>
                    <path d="M81.5996,79.0002 L82.4006,79.0002 L82.4006,79.7002 C82.7006,79.3002 83.2006,78.8992 83.7996,78.8992 L83.7996,79.7002 L83.4996,79.7002 C83.0996,79.7002 82.5996,80.0002 82.4006,80.3002 L82.4006,83.3002 L81.5996,83.3002 L81.5996,79.0002 Z" id="Fill-42" fill="#5FA844" mask="url(#mask-2)"></path>
                    <path d="M87.7002,80.2004 C87.5002,79.8994 87.0002,79.5994 86.5002,79.5994 C85.7002,79.5994 85.2002,80.2004 85.2002,81.0994 C85.2002,82.0004 85.7002,82.5994 86.5002,82.5994 C87.0002,82.5994 87.5002,82.3004 87.7002,82.0004 L87.7002,80.2004 Z M85.0002,83.8004 C85.4002,84.2004 85.8002,84.3994 86.4002,84.3994 C87.0992,84.3994 87.7002,84.0994 87.7002,83.2004 L87.7002,82.5994 C87.4002,83.0004 86.9002,83.3004 86.3002,83.3004 C85.2002,83.3004 84.4002,82.5004 84.4002,81.0994 C84.4002,79.7004 85.2002,78.8994 86.3002,78.8994 C86.9002,78.8994 87.4002,79.2004 87.7002,79.5994 L87.7002,79.0004 L88.5002,79.0004 L88.5002,83.0994 C88.5002,84.5994 87.4002,85.0004 86.4002,85.0004 C85.7002,85.0004 85.2002,84.8004 84.5992,84.3994 L85.0002,83.8004 Z" id="Fill-43" fill="#5FA844" mask="url(#mask-2)"></path>
                    <path d="M90,84.3 C90.3,84.3 90.5,84.2 90.6,83.9 L90.8,83.3 L89,79 L90,79 L91.3,82.4 L92.6,79 L93.5,79 L91.4,84.1 C91.1,84.8 90.7,85 90,85 C89.9,85 89.6,85 89.5,84.9 L89.6,84.2 C89.8,84.3 89.9,84.3 90,84.3" id="Fill-44" fill="#5FA844" mask="url(#mask-2)"></path>
                    <path d="M97.0996,80.8 L99.7006,80.8 C99.7006,80.2 99.2996,79.5 98.4006,79.5 C97.4996,79.6 97.0996,80.2 97.0996,80.8 M98.4006,78.9 C99.7006,78.9 100.4996,79.9 100.4996,81.2 L100.4996,81.4 L97.0996,81.4 C97.2006,82.1 97.7006,82.7 98.5996,82.7 C99.0996,82.7 99.5996,82.5 99.9006,82.2 L100.2996,82.7 C99.9006,83.1 99.2996,83.3 98.5996,83.3 C97.2996,83.3 96.4006,82.4 96.4006,81 C96.2006,79.9 97.0996,78.9 98.4006,78.9" id="Fill-45" fill="#5FA844" mask="url(#mask-2)"></path>
                    <path d="M106.7,83.3 L107.5,83.3 L107.5,79 L106.7,79 L106.7,83.3 Z M106.6,77.8 C106.6,77.5 106.8,77.3 107.1,77.3 C107.4,77.3 107.6,77.5 107.6,77.8 C107.6,78.1 107.4,78.3 107.1,78.3 C106.9,78.3 106.6,78.1 106.6,77.8 L106.6,77.8 Z M104.3,79.7 L103.6,79.7 L103.6,79 L104.3,79 L104.3,78.7 C104.3,77.8 104.8,77.3 105.6,77.3 C105.9,77.3 106.1,77.4 106.3,77.5 L106.1,78.1 C106,78 105.9,78 105.7,78 C105.3,78 105.1,78.3 105.1,78.8 L105.1,79.1 L106,79.1 L106,79.8 L105.1,79.8 L105.1,83.3 L104.3,83.3 L104.3,79.7 Z M101.7,79.7 L101,79.7 L101,79 L101.7,79 L101.7,78.7 C101.7,77.8 102.2,77.3 103,77.3 C103.3,77.3 103.5,77.4 103.7,77.5 L103.5,78.1 C103.4,78 103.3,78 103.1,78 C102.7,78 102.5,78.3 102.5,78.8 L102.5,79.1 L103.4,79.1 L103.4,79.8 L102.5,79.8 L102.5,83.3 L101.7,83.3 L101.7,79.7 Z" id="Fill-46" fill="#5FA844" mask="url(#mask-2)"></path>
                    <path d="M110.7002,78.8996 C111.5002,78.8996 112.0002,79.2006 112.3002,79.7006 L111.8002,80.2006 C111.5002,79.7996 111.2002,79.7006 110.8002,79.7006 C110.0002,79.7006 109.4002,80.2996 109.4002,81.2006 C109.4002,82.0996 109.9002,82.7006 110.8002,82.7006 C111.2002,82.7006 111.5992,82.5006 111.8002,82.2006 L112.3002,82.7006 C112.0002,83.0996 111.5002,83.5006 110.7002,83.5006 C109.4002,83.5006 108.5002,82.5006 108.5002,81.2006 C108.5002,79.8996 109.4002,78.8996 110.7002,78.8996" id="Fill-47" fill="#5FA844" mask="url(#mask-2)"></path>
                    <path d="M113.2,83.3 L114,83.3 L114,79 L113.2,79 L113.2,83.3 Z M113.1,77.8 C113.1,77.5 113.3,77.3 113.6,77.3 C113.9,77.3 114.1,77.5 114.1,77.8 C114.1,78.1 113.9,78.3 113.6,78.3 C113.3,78.3 113.1,78.1 113.1,77.8 L113.1,77.8 Z" id="Fill-48" fill="#5FA844" mask="url(#mask-2)"></path>
                    <path d="M115.9004,80.8 L118.5004,80.8 C118.5004,80.2 118.0994,79.5 117.2004,79.5 C116.2994,79.6 115.9004,80.2 115.9004,80.8 M117.2004,78.9 C118.5004,78.9 119.2994,79.9 119.2994,81.2 L119.2994,81.4 L115.9004,81.4 C116.0004,82.1 116.5004,82.7 117.4004,82.7 C117.9004,82.7 118.4004,82.5 118.7004,82.2 L119.0994,82.7 C118.7004,83.1 118.0994,83.3 117.4004,83.3 C116.0994,83.3 115.2004,82.4 115.2004,81 C115.0004,79.9 115.9004,78.9 117.2004,78.9" id="Fill-49" fill="#5FA844" mask="url(#mask-2)"></path>
                    <path d="M123.2002,80.5998 C123.2002,79.8998 122.8002,79.7008 122.3002,79.7008 C121.8002,79.7008 121.3002,79.9998 121.0992,80.2998 L121.0992,83.2998 L120.3002,83.2998 L120.3002,78.9998 L121.0992,78.9998 L121.0992,79.5998 C121.4002,79.2998 122.0002,78.8998 122.5992,78.8998 C123.5002,78.8998 124.0002,79.3998 124.0002,80.2998 L124.0002,83.2998 L123.2002,83.2998 L123.2002,80.5998 Z" id="Fill-50" fill="#5FA844" mask="url(#mask-2)"></path>
                    <path d="M127.2002,78.8996 C128.0002,78.8996 128.5002,79.2006 128.8002,79.7006 L128.3002,80.2006 C128.0002,79.7996 127.7002,79.7006 127.3002,79.7006 C126.5002,79.7006 125.9002,80.2996 125.9002,81.2006 C125.9002,82.0996 126.4002,82.7006 127.3002,82.7006 C127.7002,82.7006 128.0992,82.5006 128.3002,82.2006 L128.8002,82.7006 C128.5002,83.0996 128.0002,83.5006 127.2002,83.5006 C125.9002,83.5006 125.0002,82.5006 125.0002,81.2006 C125.0002,79.8996 125.9002,78.8996 127.2002,78.8996" id="Fill-51" fill="#5FA844" mask="url(#mask-2)"></path>
                    <path d="M129.9004,84.3 C130.2004,84.3 130.4004,84.2 130.5004,83.9 L130.7004,83.3 L128.9004,79 L129.7994,79 L131.0994,82.4 L132.4004,79 L133.2994,79 L131.2004,84.1 C130.9004,84.8 130.5004,85 129.7994,85 C129.7004,85 129.4004,85 129.2994,84.9 L129.4004,84.2 C129.7004,84.3 129.7994,84.3 129.9004,84.3" id="Fill-52" fill="#5FA844" mask="url(#mask-2)"></path>
                </g>
            </g>
        </g>
    </g>
</svg>